<svg xmlns="http://www.w3.org/2000/svg" width="20" height="22" viewBox="0 0 20 22">
  <g fill="#FFF">
    <polygon points="13.333 2.236 13.333 0 6.667 0 6.667 2.236 0 2.236 0 4.473 20 4.473 20 2.236"/>
    <path d="M2.22222222,5.59098684 L2.22222222,19.0120395 C2.22222222,20.2445395 3.21888889,21.2488816 4.44444444,21.2488816 L15.5555556,21.2488816 C16.7811111,21.2488816 17.7777778,20.2445395 17.7777778,19.0120395 L17.7777778,5.59098684 L2.22222222,5.59098684 L2.22222222,5.59098684 Z M8.88888889,16.7763158 L6.66666667,16.7763158 L6.66666667,10.0657895 L8.88888889,10.0657895 L8.88888889,16.7763158 Z M13.3333333,16.7763158 L11.1111111,16.7763158 L11.1111111,10.0657895 L13.3333333,10.0657895 L13.3333333,16.7763158 Z"/>
  </g>
</svg>
